<svg id="Layer_1" enable-background="new 0 0 120 120" height="512" viewBox="0 0 120 120" width="512" xmlns="http://www.w3.org/2000/svg"><g><path d="m19.6 63.4c-1.6-2-1.6-4.8 0-6.7l37-43.6c1.5-1.9 4.2-2.2 6.1-.8.3.2.5.5.8.8l37 43.6c1.6 2 1.6 4.8 0 6.7l-37 43.6c-1.5 1.9-4.2 2.2-6.1.8-.3-.2-.5-.5-.8-.8z" fill="red"/><path d="m60 18.5 35.3 41.4-35.3 41.5-35.3-41.5zm0-7.1c-1.3 0-2.6.6-3.4 1.7l-37 43.6c-1.6 2-1.6 4.8 0 6.7l37 43.6c1.5 1.9 4.2 2.2 6.1.8.3-.2.5-.5.8-.8l37-43.6c1.6-2 1.6-4.8 0-6.7l-37-43.6c-.9-1.1-2.2-1.7-3.5-1.7z" fill="red"/></g></svg>